<svg width="162" height="40" viewBox="0 0 162 40" fill="none" xmlns="http://www.w3.org/2000/svg">
<g clip-path="url(#clip0_5_6222)">
<rect x="0.5" y="0.5" width="161" height="39" rx="5.5" fill="white"/>
<path d="M14.2614 26H12.3977L16.5852 14.3636H18.6136L22.8011 26H20.9375L17.6477 16.4773H17.5568L14.2614 26ZM14.5739 21.4432H20.6193V22.9205H14.5739V21.4432ZM27.4396 26.1705C26.735 26.1705 26.1063 25.9905 25.5532 25.6307C25.004 25.267 24.5722 24.75 24.2578 24.0795C23.9472 23.4053 23.7919 22.5966 23.7919 21.6534C23.7919 20.7102 23.9491 19.9034 24.2635 19.233C24.5816 18.5625 25.0172 18.0492 25.5703 17.6932C26.1233 17.3371 26.7502 17.1591 27.451 17.1591C27.9926 17.1591 28.4282 17.25 28.7578 17.4318C29.0911 17.6098 29.3487 17.8182 29.5305 18.0568C29.7161 18.2955 29.86 18.5057 29.9623 18.6875H30.0646V14.3636H31.7635V26H30.1044V24.642H29.9623C29.86 24.8277 29.7123 25.0398 29.5191 25.2784C29.3297 25.517 29.0684 25.7254 28.735 25.9034C28.4017 26.0814 27.9699 26.1705 27.4396 26.1705ZM27.8146 24.7216C28.3032 24.7216 28.7161 24.5928 29.0532 24.3352C29.3941 24.0739 29.6517 23.7121 29.826 23.25C30.004 22.7879 30.093 22.25 30.093 21.6364C30.093 21.0303 30.0059 20.5 29.8316 20.0455C29.6574 19.5909 29.4017 19.2367 29.0646 18.983C28.7275 18.7292 28.3108 18.6023 27.8146 18.6023C27.3032 18.6023 26.8771 18.7348 26.5362 19C26.1953 19.2652 25.9377 19.6269 25.7635 20.0852C25.593 20.5436 25.5078 21.0606 25.5078 21.6364C25.5078 22.2197 25.5949 22.7443 25.7691 23.2102C25.9434 23.6761 26.201 24.0455 26.5419 24.3182C26.8866 24.5871 27.3108 24.7216 27.8146 24.7216ZM37.4232 26.1705C36.7187 26.1705 36.0899 25.9905 35.5369 25.6307C34.9876 25.267 34.5558 24.75 34.2414 24.0795C33.9308 23.4053 33.7755 22.5966 33.7755 21.6534C33.7755 20.7102 33.9327 19.9034 34.2471 19.233C34.5653 18.5625 35.0009 18.0492 35.5539 17.6932C36.1069 17.3371 36.7338 17.1591 37.4346 17.1591C37.9762 17.1591 38.4119 17.25 38.7414 17.4318C39.0747 17.6098 39.3323 17.8182 39.5141 18.0568C39.6997 18.2955 39.8437 18.5057 39.9459 18.6875H40.0482V14.3636H41.7471V26H40.088V24.642H39.9459C39.8437 24.8277 39.6959 25.0398 39.5028 25.2784C39.3134 25.517 39.052 25.7254 38.7187 25.9034C38.3853 26.0814 37.9535 26.1705 37.4232 26.1705ZM37.7982 24.7216C38.2869 24.7216 38.6997 24.5928 39.0369 24.3352C39.3778 24.0739 39.6353 23.7121 39.8096 23.25C39.9876 22.7879 40.0766 22.25 40.0766 21.6364C40.0766 21.0303 39.9895 20.5 39.8153 20.0455C39.641 19.5909 39.3853 19.2367 39.0482 18.983C38.7111 18.7292 38.2944 18.6023 37.7982 18.6023C37.2869 18.6023 36.8607 18.7348 36.5198 19C36.1789 19.2652 35.9213 19.6269 35.7471 20.0852C35.5766 20.5436 35.4914 21.0606 35.4914 21.6364C35.4914 22.2197 35.5785 22.7443 35.7528 23.2102C35.927 23.6761 36.1846 24.0455 36.5255 24.3182C36.8702 24.5871 37.2944 24.7216 37.7982 24.7216ZM50.041 20.8182V26H48.3422V17.2727H49.9729V18.6932H50.0808C50.2816 18.2311 50.596 17.8598 51.024 17.5795C51.4558 17.2992 51.9994 17.1591 52.6547 17.1591C53.2494 17.1591 53.7702 17.2841 54.2172 17.5341C54.6641 17.7803 55.0107 18.1477 55.2569 18.6364C55.5032 19.125 55.6263 19.7292 55.6263 20.4489V26H53.9274V20.6534C53.9274 20.0208 53.7626 19.5265 53.4331 19.1705C53.1035 18.8106 52.6509 18.6307 52.0751 18.6307C51.6812 18.6307 51.3308 18.7159 51.024 18.8864C50.721 19.0568 50.4804 19.3068 50.3024 19.6364C50.1282 19.9621 50.041 20.3561 50.041 20.8182ZM61.634 26.1761C60.7742 26.1761 60.0337 25.9924 59.4124 25.625C58.795 25.2538 58.3177 24.733 57.9806 24.0625C57.6473 23.3883 57.4806 22.5985 57.4806 21.6932C57.4806 20.7992 57.6473 20.0114 57.9806 19.3295C58.3177 18.6477 58.7874 18.1155 59.3897 17.733C59.9958 17.3504 60.7041 17.1591 61.5147 17.1591C62.0071 17.1591 62.4844 17.2405 62.9465 17.4034C63.4087 17.5663 63.8234 17.822 64.1909 18.1705C64.5583 18.5189 64.848 18.9716 65.0602 19.5284C65.2723 20.0814 65.3784 20.7538 65.3784 21.5455V22.1477H58.4409V20.875H63.7136C63.7136 20.428 63.6227 20.0322 63.4409 19.6875C63.259 19.339 63.0034 19.0644 62.6738 18.8636C62.348 18.6629 61.9655 18.5625 61.5261 18.5625C61.0488 18.5625 60.6321 18.6799 60.2761 18.9148C59.9238 19.1458 59.6511 19.4489 59.4579 19.8239C59.2685 20.1951 59.1738 20.5985 59.1738 21.0341V22.0284C59.1738 22.6117 59.2761 23.108 59.4806 23.517C59.689 23.9261 59.9787 24.2386 60.3499 24.4545C60.7212 24.6667 61.1549 24.7727 61.6511 24.7727C61.973 24.7727 62.2666 24.7273 62.5318 24.6364C62.7969 24.5417 63.0261 24.4015 63.2193 24.2159C63.4124 24.0303 63.5602 23.8011 63.6624 23.5284L65.2704 23.8182C65.1416 24.2917 64.9105 24.7064 64.5772 25.0625C64.2477 25.4148 63.8329 25.6894 63.3329 25.8864C62.8367 26.0795 62.2704 26.1761 61.634 26.1761ZM69.1077 26L66.5395 17.2727H68.2952L70.0054 23.6818H70.0907L71.8066 17.2727H73.5623L75.2668 23.6534H75.352L77.0509 17.2727H78.8066L76.2441 26H74.5111L72.7384 19.6989H72.6077L70.835 26H69.1077ZM84.5892 26V17.2727H86.2199V18.6932H86.3278C86.5096 18.2121 86.807 17.8371 87.2199 17.5682C87.6327 17.2955 88.1271 17.1591 88.7028 17.1591C89.2861 17.1591 89.7748 17.2955 90.1687 17.5682C90.5664 17.8409 90.86 18.2159 91.0494 18.6932H91.1403C91.3486 18.2273 91.6801 17.8561 92.1346 17.5795C92.5892 17.2992 93.1308 17.1591 93.7596 17.1591C94.5513 17.1591 95.1971 17.4072 95.6971 17.9034C96.2009 18.3996 96.4528 19.1477 96.4528 20.1477V26H94.7539V20.3068C94.7539 19.7159 94.593 19.2879 94.271 19.0227C93.949 18.7576 93.5646 18.625 93.1176 18.625C92.5646 18.625 92.1346 18.7955 91.8278 19.1364C91.521 19.4735 91.3676 19.9072 91.3676 20.4375V26H89.6744V20.1989C89.6744 19.7254 89.5267 19.3447 89.2312 19.0568C88.9358 18.7689 88.5513 18.625 88.0778 18.625C87.7558 18.625 87.4585 18.7102 87.1858 18.8807C86.9168 19.0473 86.699 19.2803 86.5324 19.5795C86.3695 19.8788 86.288 20.2254 86.288 20.6193V26H84.5892ZM102.459 26.1761C101.599 26.1761 100.859 25.9924 100.238 25.625C99.6201 25.2538 99.1429 24.733 98.8057 24.0625C98.4724 23.3883 98.3057 22.5985 98.3057 21.6932C98.3057 20.7992 98.4724 20.0114 98.8057 19.3295C99.1429 18.6477 99.6126 18.1155 100.215 17.733C100.821 17.3504 101.529 17.1591 102.34 17.1591C102.832 17.1591 103.31 17.2405 103.772 17.4034C104.234 17.5663 104.649 17.822 105.016 18.1705C105.383 18.5189 105.673 18.9716 105.885 19.5284C106.097 20.0814 106.203 20.7538 106.203 21.5455V22.1477H99.266V20.875H104.539C104.539 20.428 104.448 20.0322 104.266 19.6875C104.084 19.339 103.828 19.0644 103.499 18.8636C103.173 18.6629 102.791 18.5625 102.351 18.5625C101.874 18.5625 101.457 18.6799 101.101 18.9148C100.749 19.1458 100.476 19.4489 100.283 19.8239C100.094 20.1951 99.9989 20.5985 99.9989 21.0341V22.0284C99.9989 22.6117 100.101 23.108 100.306 23.517C100.514 23.9261 100.804 24.2386 101.175 24.4545C101.546 24.6667 101.98 24.7727 102.476 24.7727C102.798 24.7727 103.092 24.7273 103.357 24.6364C103.622 24.5417 103.851 24.4015 104.044 24.2159C104.238 24.0303 104.385 23.8011 104.488 23.5284L106.096 23.8182C105.967 24.2917 105.736 24.7064 105.402 25.0625C105.073 25.4148 104.658 25.6894 104.158 25.8864C103.662 26.0795 103.096 26.1761 102.459 26.1761ZM110.596 26.1932C110.043 26.1932 109.543 26.0909 109.096 25.8864C108.649 25.678 108.295 25.3769 108.034 24.983C107.776 24.589 107.647 24.1061 107.647 23.5341C107.647 23.0417 107.742 22.6364 107.931 22.3182C108.121 22 108.376 21.7481 108.698 21.5625C109.02 21.3769 109.38 21.2367 109.778 21.142C110.176 21.0473 110.581 20.9754 110.994 20.9261C111.517 20.8655 111.941 20.8163 112.267 20.7784C112.592 20.7367 112.829 20.6705 112.977 20.5795C113.125 20.4886 113.198 20.3409 113.198 20.1364V20.0966C113.198 19.6004 113.058 19.2159 112.778 18.9432C112.501 18.6705 112.089 18.5341 111.539 18.5341C110.967 18.5341 110.517 18.661 110.187 18.9148C109.861 19.1648 109.636 19.4432 109.511 19.75L107.914 19.3864C108.104 18.8561 108.38 18.428 108.744 18.1023C109.111 17.7727 109.534 17.5341 110.011 17.3864C110.488 17.2348 110.99 17.1591 111.517 17.1591C111.865 17.1591 112.234 17.2008 112.625 17.2841C113.019 17.3636 113.386 17.5114 113.727 17.7273C114.072 17.9432 114.354 18.2519 114.573 18.6534C114.793 19.0511 114.903 19.5682 114.903 20.2045V26H113.244V24.8068H113.176C113.066 25.0265 112.901 25.2424 112.681 25.4545C112.462 25.6667 112.18 25.8428 111.835 25.983C111.49 26.1231 111.077 26.1932 110.596 26.1932ZM110.966 24.8295C111.435 24.8295 111.837 24.7367 112.17 24.5511C112.507 24.3655 112.763 24.1231 112.937 23.8239C113.115 23.5208 113.204 23.197 113.204 22.8523V21.7273C113.144 21.7879 113.026 21.8447 112.852 21.8977C112.681 21.947 112.486 21.9905 112.267 22.0284C112.047 22.0625 111.833 22.0947 111.625 22.125C111.416 22.1515 111.242 22.1742 111.102 22.1932C110.772 22.2348 110.471 22.3049 110.198 22.4034C109.93 22.5019 109.714 22.6439 109.551 22.8295C109.392 23.0114 109.312 23.2538 109.312 23.5568C109.312 23.9773 109.467 24.2955 109.778 24.5114C110.089 24.7235 110.484 24.8295 110.966 24.8295ZM118.833 14.3636V26H117.134V14.3636H118.833Z" fill="#101113"/>
<g clip-path="url(#clip1_5_6222)">
<path d="M138.083 19.0834V13.5834H139.917V19.0834H145.417V20.9167H139.917V26.4167H138.083V20.9167H132.583V19.0834H138.083Z" fill="#101113"/>
</g>
<rect x="0.5" y="0.5" width="161" height="39" rx="5.5" stroke="#DEE2E6"/>
</g>
<defs>
<clipPath id="clip0_5_6222">
<path d="M0 6C0 2.68629 2.68629 0 6 0H156C159.314 0 162 2.68629 162 6V34C162 37.3137 159.314 40 156 40H6C2.68629 40 0 37.3137 0 34V6Z" fill="white"/>
</clipPath>
<clipPath id="clip1_5_6222">
<rect width="22" height="22" fill="white" transform="translate(128 9)"/>
</clipPath>
</defs>
</svg>
