<svg width="214" height="40" viewBox="0 0 214 40" fill="none" xmlns="http://www.w3.org/2000/svg">
<g clip-path="url(#clip0_113_1751)">
<path d="M0 6C0 2.68629 2.68629 0 6 0H208C211.314 0 214 2.68629 214 6V34C214 37.3137 211.314 40 208 40H6C2.68629 40 0 37.3137 0 34V6Z" fill="#269AFF"/>
<path d="M22.6705 14.3636V26H21.0568L15.142 17.4659H15.0341V26H13.2784V14.3636H14.9034L20.8239 22.9091H20.9318V14.3636H22.6705ZM27.6029 26.1932C27.0499 26.1932 26.5499 26.0909 26.1029 25.8864C25.656 25.678 25.3018 25.3769 25.0404 24.983C24.7829 24.589 24.6541 24.1061 24.6541 23.5341C24.6541 23.0417 24.7488 22.6364 24.9382 22.3182C25.1276 22 25.3832 21.7481 25.7052 21.5625C26.0272 21.3769 26.387 21.2367 26.7848 21.142C27.1825 21.0473 27.5878 20.9754 28.0007 20.9261C28.5234 20.8655 28.9476 20.8163 29.2734 20.7784C29.5992 20.7367 29.8359 20.6705 29.9836 20.5795C30.1314 20.4886 30.2052 20.3409 30.2052 20.1364V20.0966C30.2052 19.6004 30.0651 19.2159 29.7848 18.9432C29.5082 18.6705 29.0954 18.5341 28.5461 18.5341C27.9742 18.5341 27.5234 18.661 27.1939 18.9148C26.8681 19.1648 26.6427 19.4432 26.5177 19.75L24.9211 19.3864C25.1105 18.8561 25.387 18.428 25.7507 18.1023C26.1181 17.7727 26.5404 17.5341 27.0177 17.3864C27.495 17.2348 27.9969 17.1591 28.5234 17.1591C28.8719 17.1591 29.2412 17.2008 29.6314 17.2841C30.0253 17.3636 30.3927 17.5114 30.7336 17.7273C31.0783 17.9432 31.3605 18.2519 31.5802 18.6534C31.7999 19.0511 31.9098 19.5682 31.9098 20.2045V26H30.2507V24.8068H30.1825C30.0726 25.0265 29.9079 25.2424 29.6882 25.4545C29.4685 25.6667 29.1863 25.8428 28.8416 25.983C28.4969 26.1231 28.084 26.1932 27.6029 26.1932ZM27.9723 24.8295C28.442 24.8295 28.8435 24.7367 29.1768 24.5511C29.5139 24.3655 29.7696 24.1231 29.9439 23.8239C30.1219 23.5208 30.2109 23.197 30.2109 22.8523V21.7273C30.1503 21.7879 30.0329 21.8447 29.8586 21.8977C29.6882 21.947 29.4931 21.9905 29.2734 22.0284C29.0537 22.0625 28.8397 22.0947 28.6314 22.125C28.423 22.1515 28.2488 22.1742 28.1086 22.1932C27.7791 22.2348 27.4779 22.3049 27.2052 22.4034C26.9363 22.5019 26.7204 22.6439 26.5575 22.8295C26.3984 23.0114 26.3189 23.2538 26.3189 23.5568C26.3189 23.9773 26.4742 24.2955 26.7848 24.5114C27.0954 24.7235 27.4912 24.8295 27.9723 24.8295ZM34.1405 26V17.2727H35.7712V18.6932H35.8792C36.061 18.2121 36.3583 17.8371 36.7712 17.5682C37.1841 17.2955 37.6784 17.1591 38.2542 17.1591C38.8375 17.1591 39.3262 17.2955 39.7201 17.5682C40.1178 17.8409 40.4114 18.2159 40.6008 18.6932H40.6917C40.9 18.2273 41.2315 17.8561 41.686 17.5795C42.1405 17.2992 42.6822 17.1591 43.311 17.1591C44.1027 17.1591 44.7485 17.4072 45.2485 17.9034C45.7523 18.3996 46.0042 19.1477 46.0042 20.1477V26H44.3053V20.3068C44.3053 19.7159 44.1443 19.2879 43.8224 19.0227C43.5004 18.7576 43.1159 18.625 42.669 18.625C42.1159 18.625 41.686 18.7955 41.3792 19.1364C41.0724 19.4735 40.919 19.9072 40.919 20.4375V26H39.2258V20.1989C39.2258 19.7254 39.078 19.3447 38.7826 19.0568C38.4871 18.7689 38.1027 18.625 37.6292 18.625C37.3072 18.625 37.0099 18.7102 36.7371 18.8807C36.4682 19.0473 36.2504 19.2803 36.0837 19.5795C35.9208 19.8788 35.8394 20.2254 35.8394 20.6193V26H34.1405ZM52.0105 26.1761C51.1507 26.1761 50.4102 25.9924 49.7889 25.625C49.1715 25.2538 48.6942 24.733 48.3571 24.0625C48.0238 23.3883 47.8571 22.5985 47.8571 21.6932C47.8571 20.7992 48.0238 20.0114 48.3571 19.3295C48.6942 18.6477 49.1639 18.1155 49.7662 17.733C50.3723 17.3504 51.0806 17.1591 51.8912 17.1591C52.3836 17.1591 52.8609 17.2405 53.323 17.4034C53.7852 17.5663 54.1999 17.822 54.5674 18.1705C54.9348 18.5189 55.2245 18.9716 55.4367 19.5284C55.6488 20.0814 55.7549 20.7538 55.7549 21.5455V22.1477H48.8174V20.875H54.0901C54.0901 20.428 53.9992 20.0322 53.8174 19.6875C53.6355 19.339 53.3799 19.0644 53.0503 18.8636C52.7245 18.6629 52.342 18.5625 51.9026 18.5625C51.4253 18.5625 51.0086 18.6799 50.6526 18.9148C50.3003 19.1458 50.0276 19.4489 49.8344 19.8239C49.645 20.1951 49.5503 20.5985 49.5503 21.0341V22.0284C49.5503 22.6117 49.6526 23.108 49.8571 23.517C50.0655 23.9261 50.3552 24.2386 50.7264 24.4545C51.0977 24.6667 51.5314 24.7727 52.0276 24.7727C52.3495 24.7727 52.6431 24.7273 52.9083 24.6364C53.1734 24.5417 53.4026 24.4015 53.5958 24.2159C53.7889 24.0303 53.9367 23.8011 54.0389 23.5284L55.6469 23.8182C55.5181 24.2917 55.287 24.7064 54.9537 25.0625C54.6242 25.4148 54.2094 25.6894 53.7094 25.8864C53.2132 26.0795 52.6469 26.1761 52.0105 26.1761ZM64.3499 26.1932C63.7969 26.1932 63.2969 26.0909 62.8499 25.8864C62.403 25.678 62.0488 25.3769 61.7874 24.983C61.5299 24.589 61.4011 24.1061 61.4011 23.5341C61.4011 23.0417 61.4958 22.6364 61.6852 22.3182C61.8746 22 62.1302 21.7481 62.4522 21.5625C62.7742 21.3769 63.134 21.2367 63.5318 21.142C63.9295 21.0473 64.3348 20.9754 64.7477 20.9261C65.2704 20.8655 65.6946 20.8163 66.0204 20.7784C66.3462 20.7367 66.5829 20.6705 66.7306 20.5795C66.8784 20.4886 66.9522 20.3409 66.9522 20.1364V20.0966C66.9522 19.6004 66.8121 19.2159 66.5318 18.9432C66.2552 18.6705 65.8424 18.5341 65.2931 18.5341C64.7212 18.5341 64.2704 18.661 63.9409 18.9148C63.6151 19.1648 63.3897 19.4432 63.2647 19.75L61.6681 19.3864C61.8575 18.8561 62.134 18.428 62.4977 18.1023C62.8651 17.7727 63.2874 17.5341 63.7647 17.3864C64.242 17.2348 64.7439 17.1591 65.2704 17.1591C65.6189 17.1591 65.9882 17.2008 66.3784 17.2841C66.7723 17.3636 67.1397 17.5114 67.4806 17.7273C67.8253 17.9432 68.1075 18.2519 68.3272 18.6534C68.5469 19.0511 68.6568 19.5682 68.6568 20.2045V26H66.9977V24.8068H66.9295C66.8196 25.0265 66.6549 25.2424 66.4352 25.4545C66.2155 25.6667 65.9333 25.8428 65.5886 25.983C65.2439 26.1231 64.831 26.1932 64.3499 26.1932ZM64.7193 24.8295C65.189 24.8295 65.5905 24.7367 65.9238 24.5511C66.2609 24.3655 66.5166 24.1231 66.6909 23.8239C66.8689 23.5208 66.9579 23.197 66.9579 22.8523V21.7273C66.8973 21.7879 66.7799 21.8447 66.6056 21.8977C66.4352 21.947 66.2401 21.9905 66.0204 22.0284C65.8007 22.0625 65.5867 22.0947 65.3784 22.125C65.17 22.1515 64.9958 22.1742 64.8556 22.1932C64.5261 22.2348 64.2249 22.3049 63.9522 22.4034C63.6833 22.5019 63.4674 22.6439 63.3045 22.8295C63.1454 23.0114 63.0659 23.2538 63.0659 23.5568C63.0659 23.9773 63.2212 24.2955 63.5318 24.5114C63.8424 24.7235 64.2382 24.8295 64.7193 24.8295ZM72.5864 20.8182V26H70.8875V17.2727H72.5182V18.6932H72.6262C72.8269 18.2311 73.1413 17.8598 73.5694 17.5795C74.0012 17.2992 74.5447 17.1591 75.2 17.1591C75.7947 17.1591 76.3156 17.2841 76.7625 17.5341C77.2095 17.7803 77.5561 18.1477 77.8023 18.6364C78.0485 19.125 78.1716 19.7292 78.1716 20.4489V26H76.4728V20.6534C76.4728 20.0208 76.308 19.5265 75.9785 19.1705C75.6489 18.8106 75.1963 18.6307 74.6205 18.6307C74.2266 18.6307 73.8762 18.7159 73.5694 18.8864C73.2663 19.0568 73.0258 19.3068 72.8478 19.6364C72.6735 19.9621 72.5864 20.3561 72.5864 20.8182ZM83.6851 26.1705C82.9805 26.1705 82.3518 25.9905 81.7987 25.6307C81.2495 25.267 80.8177 24.75 80.5033 24.0795C80.1927 23.4053 80.0374 22.5966 80.0374 21.6534C80.0374 20.7102 80.1946 19.9034 80.509 19.233C80.8271 18.5625 81.2627 18.0492 81.8158 17.6932C82.3688 17.3371 82.9957 17.1591 83.6965 17.1591C84.2381 17.1591 84.6737 17.25 85.0033 17.4318C85.3366 17.6098 85.5942 17.8182 85.776 18.0568C85.9616 18.2955 86.1055 18.5057 86.2078 18.6875H86.3101V14.3636H88.009V26H86.3499V24.642H86.2078C86.1055 24.8277 85.9578 25.0398 85.7646 25.2784C85.5752 25.517 85.3139 25.7254 84.9805 25.9034C84.6472 26.0814 84.2154 26.1705 83.6851 26.1705ZM84.0601 24.7216C84.5487 24.7216 84.9616 24.5928 85.2987 24.3352C85.6396 24.0739 85.8972 23.7121 86.0715 23.25C86.2495 22.7879 86.3385 22.25 86.3385 21.6364C86.3385 21.0303 86.2514 20.5 86.0771 20.0455C85.9029 19.5909 85.6472 19.2367 85.3101 18.983C84.973 18.7292 84.5563 18.6023 84.0601 18.6023C83.5487 18.6023 83.1226 18.7348 82.7817 19C82.4408 19.2652 82.1832 19.6269 82.009 20.0852C81.8385 20.5436 81.7533 21.0606 81.7533 21.6364C81.7533 22.2197 81.8404 22.7443 82.0146 23.2102C82.1889 23.6761 82.4465 24.0455 82.7874 24.3182C83.1321 24.5871 83.5563 24.7216 84.0601 24.7216ZM101.087 17.4205C101.026 16.8826 100.776 16.4659 100.337 16.1705C99.8976 15.8712 99.3446 15.7216 98.6779 15.7216C98.2006 15.7216 97.7878 15.7973 97.4393 15.9489C97.0908 16.0966 96.82 16.3011 96.6268 16.5625C96.4374 16.8201 96.3427 17.1136 96.3427 17.4432C96.3427 17.7197 96.4071 17.9583 96.5359 18.1591C96.6684 18.3598 96.8408 18.5284 97.0529 18.6648C97.2688 18.7973 97.4999 18.9091 97.7461 19C97.9923 19.0871 98.229 19.1591 98.4563 19.2159L99.5927 19.5114C99.9639 19.6023 100.345 19.7254 100.735 19.8807C101.125 20.036 101.487 20.2405 101.82 20.4943C102.153 20.7481 102.422 21.0625 102.627 21.4375C102.835 21.8125 102.939 22.2614 102.939 22.7841C102.939 23.4432 102.769 24.0284 102.428 24.5398C102.091 25.0511 101.6 25.4545 100.956 25.75C100.316 26.0455 99.5415 26.1932 98.6325 26.1932C97.7612 26.1932 97.0075 26.0549 96.3711 25.7784C95.7347 25.5019 95.2366 25.1098 94.8768 24.6023C94.5169 24.0909 94.3181 23.4848 94.2802 22.7841H96.0415C96.0756 23.2045 96.212 23.5549 96.4506 23.8352C96.6931 24.1117 97.0018 24.3182 97.3768 24.4545C97.7556 24.5871 98.1703 24.6534 98.6211 24.6534C99.1173 24.6534 99.5586 24.5758 99.945 24.4205C100.335 24.2614 100.642 24.0417 100.865 23.7614C101.089 23.4773 101.201 23.1458 101.201 22.767C101.201 22.4223 101.102 22.1402 100.905 21.9205C100.712 21.7008 100.449 21.5189 100.115 21.375C99.7859 21.2311 99.4128 21.1042 98.9961 20.9943L97.6211 20.6193C96.6893 20.3655 95.9506 19.9924 95.4052 19.5C94.8635 19.0076 94.5927 18.3561 94.5927 17.5455C94.5927 16.875 94.7745 16.2898 95.1381 15.7898C95.5018 15.2898 95.9942 14.9015 96.6154 14.625C97.2366 14.3447 97.9374 14.2045 98.7177 14.2045C99.5056 14.2045 100.201 14.3428 100.803 14.6193C101.409 14.8958 101.886 15.2765 102.235 15.7614C102.583 16.2424 102.765 16.7955 102.78 17.4205H101.087ZM107.409 26.1932C106.856 26.1932 106.356 26.0909 105.909 25.8864C105.462 25.678 105.108 25.3769 104.846 24.983C104.589 24.589 104.46 24.1061 104.46 23.5341C104.46 23.0417 104.555 22.6364 104.744 22.3182C104.933 22 105.189 21.7481 105.511 21.5625C105.833 21.3769 106.193 21.2367 106.591 21.142C106.988 21.0473 107.394 20.9754 107.806 20.9261C108.329 20.8655 108.753 20.8163 109.079 20.7784C109.405 20.7367 109.642 20.6705 109.789 20.5795C109.937 20.4886 110.011 20.3409 110.011 20.1364V20.0966C110.011 19.6004 109.871 19.2159 109.591 18.9432C109.314 18.6705 108.901 18.5341 108.352 18.5341C107.78 18.5341 107.329 18.661 107 18.9148C106.674 19.1648 106.448 19.4432 106.323 19.75L104.727 19.3864C104.916 18.8561 105.193 18.428 105.556 18.1023C105.924 17.7727 106.346 17.5341 106.823 17.3864C107.301 17.2348 107.803 17.1591 108.329 17.1591C108.678 17.1591 109.047 17.2008 109.437 17.2841C109.831 17.3636 110.198 17.5114 110.539 17.7273C110.884 17.9432 111.166 18.2519 111.386 18.6534C111.606 19.0511 111.716 19.5682 111.716 20.2045V26H110.056V24.8068H109.988C109.878 25.0265 109.714 25.2424 109.494 25.4545C109.274 25.6667 108.992 25.8428 108.647 25.983C108.303 26.1231 107.89 26.1932 107.409 26.1932ZM107.778 24.8295C108.248 24.8295 108.649 24.7367 108.983 24.5511C109.32 24.3655 109.575 24.1231 109.75 23.8239C109.928 23.5208 110.017 23.197 110.017 22.8523V21.7273C109.956 21.7879 109.839 21.8447 109.664 21.8977C109.494 21.947 109.299 21.9905 109.079 22.0284C108.859 22.0625 108.645 22.0947 108.437 22.125C108.229 22.1515 108.055 22.1742 107.914 22.1932C107.585 22.2348 107.284 22.3049 107.011 22.4034C106.742 22.5019 106.526 22.6439 106.363 22.8295C106.204 23.0114 106.125 23.2538 106.125 23.5568C106.125 23.9773 106.28 24.2955 106.591 24.5114C106.901 24.7235 107.297 24.8295 107.778 24.8295ZM121.1 17.2727L117.935 26H116.117L112.946 17.2727H114.77L116.98 23.9886H117.071L119.276 17.2727H121.1ZM126.129 26.1761C125.269 26.1761 124.528 25.9924 123.907 25.625C123.29 25.2538 122.812 24.733 122.475 24.0625C122.142 23.3883 121.975 22.5985 121.975 21.6932C121.975 20.7992 122.142 20.0114 122.475 19.3295C122.812 18.6477 123.282 18.1155 123.884 17.733C124.491 17.3504 125.199 17.1591 126.009 17.1591C126.502 17.1591 126.979 17.2405 127.441 17.4034C127.903 17.5663 128.318 17.822 128.686 18.1705C129.053 18.5189 129.343 18.9716 129.555 19.5284C129.767 20.0814 129.873 20.7538 129.873 21.5455V22.1477H122.936V20.875H128.208C128.208 20.428 128.117 20.0322 127.936 19.6875C127.754 19.339 127.498 19.0644 127.169 18.8636C126.843 18.6629 126.46 18.5625 126.021 18.5625C125.544 18.5625 125.127 18.6799 124.771 18.9148C124.419 19.1458 124.146 19.4489 123.953 19.8239C123.763 20.1951 123.669 20.5985 123.669 21.0341V22.0284C123.669 22.6117 123.771 23.108 123.975 23.517C124.184 23.9261 124.473 24.2386 124.845 24.4545C125.216 24.6667 125.65 24.7727 126.146 24.7727C126.468 24.7727 126.761 24.7273 127.027 24.6364C127.292 24.5417 127.521 24.4015 127.714 24.2159C127.907 24.0303 128.055 23.8011 128.157 23.5284L129.765 23.8182C129.636 24.2917 129.405 24.7064 129.072 25.0625C128.742 25.4148 128.328 25.6894 127.828 25.8864C127.331 26.0795 126.765 26.1761 126.129 26.1761ZM136.065 14.3636H138.195L141.9 23.4091H142.036L145.741 14.3636H147.872V26H146.201V17.5795H146.093L142.661 25.983H141.275L137.843 17.5739H137.735V26H136.065V14.3636ZM154.017 26.1761C153.157 26.1761 152.417 25.9924 151.796 25.625C151.178 25.2538 150.701 24.733 150.364 24.0625C150.03 23.3883 149.864 22.5985 149.864 21.6932C149.864 20.7992 150.03 20.0114 150.364 19.3295C150.701 18.6477 151.171 18.1155 151.773 17.733C152.379 17.3504 153.087 17.1591 153.898 17.1591C154.39 17.1591 154.868 17.2405 155.33 17.4034C155.792 17.5663 156.207 17.822 156.574 18.1705C156.941 18.5189 157.231 18.9716 157.443 19.5284C157.655 20.0814 157.761 20.7538 157.761 21.5455V22.1477H150.824V20.875H156.097C156.097 20.428 156.006 20.0322 155.824 19.6875C155.642 19.339 155.386 19.0644 155.057 18.8636C154.731 18.6629 154.349 18.5625 153.909 18.5625C153.432 18.5625 153.015 18.6799 152.659 18.9148C152.307 19.1458 152.034 19.4489 151.841 19.8239C151.652 20.1951 151.557 20.5985 151.557 21.0341V22.0284C151.557 22.6117 151.659 23.108 151.864 23.517C152.072 23.9261 152.362 24.2386 152.733 24.4545C153.104 24.6667 153.538 24.7727 154.034 24.7727C154.356 24.7727 154.65 24.7273 154.915 24.6364C155.18 24.5417 155.409 24.4015 155.602 24.2159C155.796 24.0303 155.943 23.8011 156.046 23.5284L157.654 23.8182C157.525 24.2917 157.294 24.7064 156.96 25.0625C156.631 25.4148 156.216 25.6894 155.716 25.8864C155.22 26.0795 154.654 26.1761 154.017 26.1761ZM162.154 26.1932C161.601 26.1932 161.101 26.0909 160.654 25.8864C160.207 25.678 159.853 25.3769 159.592 24.983C159.334 24.589 159.205 24.1061 159.205 23.5341C159.205 23.0417 159.3 22.6364 159.489 22.3182C159.679 22 159.935 21.7481 160.256 21.5625C160.578 21.3769 160.938 21.2367 161.336 21.142C161.734 21.0473 162.139 20.9754 162.552 20.9261C163.075 20.8655 163.499 20.8163 163.825 20.7784C164.15 20.7367 164.387 20.6705 164.535 20.5795C164.683 20.4886 164.756 20.3409 164.756 20.1364V20.0966C164.756 19.6004 164.616 19.2159 164.336 18.9432C164.06 18.6705 163.647 18.5341 163.097 18.5341C162.525 18.5341 162.075 18.661 161.745 18.9148C161.419 19.1648 161.194 19.4432 161.069 19.75L159.472 19.3864C159.662 18.8561 159.938 18.428 160.302 18.1023C160.669 17.7727 161.092 17.5341 161.569 17.3864C162.046 17.2348 162.548 17.1591 163.075 17.1591C163.423 17.1591 163.792 17.2008 164.183 17.2841C164.577 17.3636 164.944 17.5114 165.285 17.7273C165.63 17.9432 165.912 18.2519 166.131 18.6534C166.351 19.0511 166.461 19.5682 166.461 20.2045V26H164.802V24.8068H164.734C164.624 25.0265 164.459 25.2424 164.239 25.4545C164.02 25.6667 163.738 25.8428 163.393 25.983C163.048 26.1231 162.635 26.1932 162.154 26.1932ZM162.524 24.8295C162.993 24.8295 163.395 24.7367 163.728 24.5511C164.065 24.3655 164.321 24.1231 164.495 23.8239C164.673 23.5208 164.762 23.197 164.762 22.8523V21.7273C164.702 21.7879 164.584 21.8447 164.41 21.8977C164.239 21.947 164.044 21.9905 163.825 22.0284C163.605 22.0625 163.391 22.0947 163.183 22.125C162.974 22.1515 162.8 22.1742 162.66 22.1932C162.33 22.2348 162.029 22.3049 161.756 22.4034C161.488 22.5019 161.272 22.6439 161.109 22.8295C160.95 23.0114 160.87 23.2538 160.87 23.5568C160.87 23.9773 161.025 24.2955 161.336 24.5114C161.647 24.7235 162.042 24.8295 162.524 24.8295ZM170.391 14.3636V26H168.692V14.3636H170.391Z" fill="#F8F9FA"/>
<g clip-path="url(#clip1_113_1751)">
<path d="M190.083 19.0833V13.5833H191.917V19.0833H197.417V20.9166H191.917V26.4166H190.083V20.9166H184.583V19.0833H190.083Z" fill="#F8F9FA"/>
</g>
</g>
<defs>
<clipPath id="clip0_113_1751">
<path d="M0 6C0 2.68629 2.68629 0 6 0H208C211.314 0 214 2.68629 214 6V34C214 37.3137 211.314 40 208 40H6C2.68629 40 0 37.3137 0 34V6Z" fill="white"/>
</clipPath>
<clipPath id="clip1_113_1751">
<rect width="22" height="22" fill="white" transform="translate(180 9)"/>
</clipPath>
</defs>
</svg>
