<svg width="77" height="40" viewBox="0 0 77 40" fill="none" xmlns="http://www.w3.org/2000/svg">
<g clip-path="url(#clip0_5_6819)">
<rect x="0.5" y="0.5" width="76" height="39" rx="5.5" fill="white"/>
<path d="M22.9432 18.1477H21.1705C21.1023 17.7689 20.9754 17.4356 20.7898 17.1477C20.6042 16.8598 20.3769 16.6155 20.108 16.4148C19.839 16.214 19.5379 16.0625 19.2045 15.9602C18.875 15.858 18.5246 15.8068 18.1534 15.8068C17.483 15.8068 16.8826 15.9754 16.3523 16.3125C15.8258 16.6496 15.4091 17.1439 15.1023 17.7955C14.7992 18.447 14.6477 19.2424 14.6477 20.1818C14.6477 21.1288 14.7992 21.928 15.1023 22.5795C15.4091 23.2311 15.8277 23.7235 16.358 24.0568C16.8883 24.3902 17.4848 24.5568 18.1477 24.5568C18.5152 24.5568 18.8636 24.5076 19.1932 24.4091C19.5265 24.3068 19.8277 24.1572 20.0966 23.9602C20.3655 23.7633 20.5928 23.5227 20.7784 23.2386C20.9678 22.9508 21.0985 22.6212 21.1705 22.25L22.9432 22.2557C22.8485 22.8277 22.6648 23.3542 22.392 23.8352C22.1231 24.3125 21.7765 24.7254 21.3523 25.0739C20.9318 25.4186 20.4508 25.6856 19.9091 25.875C19.3674 26.0644 18.7765 26.1591 18.1364 26.1591C17.1288 26.1591 16.2311 25.9205 15.4432 25.4432C14.6553 24.9621 14.0341 24.2746 13.5795 23.3807C13.1288 22.4867 12.9034 21.4205 12.9034 20.1818C12.9034 18.9394 13.1307 17.8731 13.5852 16.983C14.0398 16.089 14.661 15.4034 15.4489 14.9261C16.2367 14.4451 17.1326 14.2045 18.1364 14.2045C18.7538 14.2045 19.3295 14.2936 19.8636 14.4716C20.4015 14.6458 20.8845 14.9034 21.3125 15.2443C21.7405 15.5814 22.0947 15.9943 22.375 16.483C22.6553 16.9678 22.8447 17.5227 22.9432 18.1477ZM27.4154 26.1932C26.8624 26.1932 26.3624 26.0909 25.9154 25.8864C25.4685 25.678 25.1143 25.3769 24.8529 24.983C24.5954 24.589 24.4666 24.1061 24.4666 23.5341C24.4666 23.0417 24.5613 22.6364 24.7507 22.3182C24.9401 22 25.1957 21.7481 25.5177 21.5625C25.8397 21.3769 26.1995 21.2367 26.5973 21.142C26.995 21.0473 27.4003 20.9754 27.8132 20.9261C28.3359 20.8655 28.7601 20.8163 29.0859 20.7784C29.4117 20.7367 29.6484 20.6705 29.7961 20.5795C29.9439 20.4886 30.0177 20.3409 30.0177 20.1364V20.0966C30.0177 19.6004 29.8776 19.2159 29.5973 18.9432C29.3207 18.6705 28.9079 18.5341 28.3586 18.5341C27.7867 18.5341 27.3359 18.661 27.0064 18.9148C26.6806 19.1648 26.4552 19.4432 26.3302 19.75L24.7336 19.3864C24.923 18.8561 25.1995 18.428 25.5632 18.1023C25.9306 17.7727 26.3529 17.5341 26.8302 17.3864C27.3075 17.2348 27.8094 17.1591 28.3359 17.1591C28.6844 17.1591 29.0537 17.2008 29.4439 17.2841C29.8378 17.3636 30.2052 17.5114 30.5461 17.7273C30.8908 17.9432 31.173 18.2519 31.3927 18.6534C31.6124 19.0511 31.7223 19.5682 31.7223 20.2045V26H30.0632V24.8068H29.995C29.8851 25.0265 29.7204 25.2424 29.5007 25.4545C29.281 25.6667 28.9988 25.8428 28.6541 25.983C28.3094 26.1231 27.8965 26.1932 27.4154 26.1932ZM27.7848 24.8295C28.2545 24.8295 28.656 24.7367 28.9893 24.5511C29.3264 24.3655 29.5821 24.1231 29.7564 23.8239C29.9344 23.5208 30.0234 23.197 30.0234 22.8523V21.7273C29.9628 21.7879 29.8454 21.8447 29.6711 21.8977C29.5007 21.947 29.3056 21.9905 29.0859 22.0284C28.8662 22.0625 28.6522 22.0947 28.4439 22.125C28.2355 22.1515 28.0613 22.1742 27.9211 22.1932C27.5916 22.2348 27.2904 22.3049 27.0177 22.4034C26.7488 22.5019 26.5329 22.6439 26.37 22.8295C26.2109 23.0114 26.1314 23.2538 26.1314 23.5568C26.1314 23.9773 26.2867 24.2955 26.5973 24.5114C26.9079 24.7235 27.3037 24.8295 27.7848 24.8295ZM35.6519 20.8182V26H33.953V17.2727H35.5837V18.6932H35.6917C35.8924 18.2311 36.2068 17.8598 36.6349 17.5795C37.0667 17.2992 37.6102 17.1591 38.2655 17.1591C38.8602 17.1591 39.3811 17.2841 39.828 17.5341C40.275 17.7803 40.6216 18.1477 40.8678 18.6364C41.114 19.125 41.2371 19.7292 41.2371 20.4489V26H39.5383V20.6534C39.5383 20.0208 39.3735 19.5265 39.044 19.1705C38.7144 18.8106 38.2618 18.6307 37.686 18.6307C37.2921 18.6307 36.9417 18.7159 36.6349 18.8864C36.3318 19.0568 36.0913 19.3068 35.9133 19.6364C35.739 19.9621 35.6519 20.3561 35.6519 20.8182ZM47.1597 26.1761C46.315 26.1761 45.5877 25.9848 44.9779 25.6023C44.3718 25.2159 43.9059 24.6837 43.5801 24.0057C43.2544 23.3277 43.0915 22.5511 43.0915 21.6761C43.0915 20.7898 43.2582 20.0076 43.5915 19.3295C43.9248 18.6477 44.3945 18.1155 45.0006 17.733C45.6067 17.3504 46.3207 17.1591 47.1426 17.1591C47.8055 17.1591 48.3964 17.2822 48.9154 17.5284C49.4343 17.7708 49.8529 18.1117 50.171 18.5511C50.493 18.9905 50.6843 19.5038 50.7449 20.0909H49.0915C49.0006 19.6818 48.7923 19.3295 48.4665 19.0341C48.1445 18.7386 47.7127 18.5909 47.171 18.5909C46.6976 18.5909 46.2828 18.7159 45.9267 18.9659C45.5745 19.2121 45.2998 19.5644 45.1029 20.0227C44.9059 20.4773 44.8074 21.0152 44.8074 21.6364C44.8074 22.2727 44.904 22.822 45.0972 23.2841C45.2904 23.7462 45.5631 24.1042 45.9154 24.358C46.2714 24.6117 46.69 24.7386 47.171 24.7386C47.493 24.7386 47.7847 24.6799 48.046 24.5625C48.3112 24.4413 48.5328 24.2689 48.7108 24.0455C48.8926 23.822 49.0195 23.553 49.0915 23.2386H50.7449C50.6843 23.803 50.5006 24.3068 50.1938 24.75C49.887 25.1932 49.476 25.5417 48.9608 25.7955C48.4495 26.0492 47.8491 26.1761 47.1597 26.1761ZM56.291 26.1761C55.4312 26.1761 54.6907 25.9924 54.0694 25.625C53.452 25.2538 52.9747 24.733 52.6376 24.0625C52.3043 23.3883 52.1376 22.5985 52.1376 21.6932C52.1376 20.7992 52.3043 20.0114 52.6376 19.3295C52.9747 18.6477 53.4444 18.1155 54.0467 17.733C54.6528 17.3504 55.3611 17.1591 56.1717 17.1591C56.6641 17.1591 57.1414 17.2405 57.6035 17.4034C58.0657 17.5663 58.4804 17.822 58.8479 18.1705C59.2153 18.5189 59.5051 18.9716 59.7172 19.5284C59.9293 20.0814 60.0354 20.7538 60.0354 21.5455V22.1477H53.0979V20.875H58.3706C58.3706 20.428 58.2797 20.0322 58.0979 19.6875C57.916 19.339 57.6604 19.0644 57.3308 18.8636C57.0051 18.6629 56.6225 18.5625 56.1831 18.5625C55.7058 18.5625 55.2891 18.6799 54.9331 18.9148C54.5808 19.1458 54.3081 19.4489 54.1149 19.8239C53.9255 20.1951 53.8308 20.5985 53.8308 21.0341V22.0284C53.8308 22.6117 53.9331 23.108 54.1376 23.517C54.346 23.9261 54.6357 24.2386 55.0069 24.4545C55.3782 24.6667 55.8119 24.7727 56.3081 24.7727C56.6301 24.7727 56.9236 24.7273 57.1888 24.6364C57.4539 24.5417 57.6831 24.4015 57.8763 24.2159C58.0694 24.0303 58.2172 23.8011 58.3194 23.5284L59.9274 23.8182C59.7986 24.2917 59.5676 24.7064 59.2342 25.0625C58.9047 25.4148 58.4899 25.6894 57.9899 25.8864C57.4937 26.0795 56.9274 26.1761 56.291 26.1761ZM63.5872 14.3636V26H61.8883V14.3636H63.5872Z" fill="#101113"/>
<rect x="0.5" y="0.5" width="76" height="39" rx="5.5" stroke="#DEE2E6"/>
</g>
<defs>
<clipPath id="clip0_5_6819">
<path d="M0 6C0 2.68629 2.68629 0 6 0H71C74.3137 0 77 2.68629 77 6V34C77 37.3137 74.3137 40 71 40H6C2.68629 40 0 37.3137 0 34V6Z" fill="white"/>
</clipPath>
</defs>
</svg>
