<svg width="133" height="40" viewBox="0 0 133 40" fill="none" xmlns="http://www.w3.org/2000/svg">
<g clip-path="url(#clip0_113_1762)">
<path d="M0 6C0 2.68629 2.68629 0 6 0H127C130.314 0 133 2.68629 133 6V34C133 37.3137 130.314 40 127 40H6C2.68629 40 0 37.3137 0 34V6Z" fill="#269AFF"/>
<path d="M19.625 17.4205C19.5644 16.8826 19.3144 16.4659 18.875 16.1705C18.4356 15.8712 17.8826 15.7216 17.2159 15.7216C16.7386 15.7216 16.3258 15.7973 15.9773 15.9489C15.6288 16.0966 15.358 16.3011 15.1648 16.5625C14.9754 16.8201 14.8807 17.1136 14.8807 17.4432C14.8807 17.7197 14.9451 17.9583 15.0739 18.1591C15.2064 18.3598 15.3788 18.5284 15.5909 18.6648C15.8068 18.7973 16.0379 18.9091 16.2841 19C16.5303 19.0871 16.767 19.1591 16.9943 19.2159L18.1307 19.5114C18.5019 19.6023 18.8826 19.7254 19.2727 19.8807C19.6629 20.036 20.0246 20.2405 20.358 20.4943C20.6913 20.7481 20.9602 21.0625 21.1648 21.4375C21.3731 21.8125 21.4773 22.2614 21.4773 22.7841C21.4773 23.4432 21.3068 24.0284 20.9659 24.5398C20.6288 25.0511 20.1383 25.4545 19.4943 25.75C18.8542 26.0455 18.0795 26.1932 17.1705 26.1932C16.2992 26.1932 15.5455 26.0549 14.9091 25.7784C14.2727 25.5019 13.7746 25.1098 13.4148 24.6023C13.0549 24.0909 12.8561 23.4848 12.8182 22.7841H14.5795C14.6136 23.2045 14.75 23.5549 14.9886 23.8352C15.2311 24.1117 15.5398 24.3182 15.9148 24.4545C16.2936 24.5871 16.7083 24.6534 17.1591 24.6534C17.6553 24.6534 18.0966 24.5758 18.483 24.4205C18.8731 24.2614 19.1799 24.0417 19.4034 23.7614C19.6269 23.4773 19.7386 23.1458 19.7386 22.767C19.7386 22.4223 19.6402 22.1402 19.4432 21.9205C19.25 21.7008 18.9867 21.5189 18.6534 21.375C18.3239 21.2311 17.9508 21.1042 17.5341 20.9943L16.1591 20.6193C15.2273 20.3655 14.4886 19.9924 13.9432 19.5C13.4015 19.0076 13.1307 18.3561 13.1307 17.5455C13.1307 16.875 13.3125 16.2898 13.6761 15.7898C14.0398 15.2898 14.5322 14.9015 15.1534 14.625C15.7746 14.3447 16.4754 14.2045 17.2557 14.2045C18.0436 14.2045 18.7386 14.3428 19.3409 14.6193C19.947 14.8958 20.4242 15.2765 20.7727 15.7614C21.1212 16.2424 21.303 16.7955 21.3182 17.4205H19.625ZM25.9467 26.1932C25.3937 26.1932 24.8937 26.0909 24.4467 25.8864C23.9997 25.678 23.6456 25.3769 23.3842 24.983C23.1266 24.589 22.9978 24.1061 22.9978 23.5341C22.9978 23.0417 23.0925 22.6364 23.2819 22.3182C23.4713 22 23.727 21.7481 24.049 21.5625C24.3709 21.3769 24.7308 21.2367 25.1285 21.142C25.5262 21.0473 25.9315 20.9754 26.3444 20.9261C26.8671 20.8655 27.2914 20.8163 27.6171 20.7784C27.9429 20.7367 28.1796 20.6705 28.3274 20.5795C28.4751 20.4886 28.549 20.3409 28.549 20.1364V20.0966C28.549 19.6004 28.4088 19.2159 28.1285 18.9432C27.852 18.6705 27.4391 18.5341 26.8899 18.5341C26.3179 18.5341 25.8671 18.661 25.5376 18.9148C25.2118 19.1648 24.9865 19.4432 24.8615 19.75L23.2649 19.3864C23.4543 18.8561 23.7308 18.428 24.0944 18.1023C24.4618 17.7727 24.8842 17.5341 25.3615 17.3864C25.8387 17.2348 26.3406 17.1591 26.8671 17.1591C27.2156 17.1591 27.585 17.2008 27.9751 17.2841C28.369 17.3636 28.7365 17.5114 29.0774 17.7273C29.4221 17.9432 29.7043 18.2519 29.924 18.6534C30.1437 19.0511 30.2535 19.5682 30.2535 20.2045V26H28.5944V24.8068H28.5262C28.4164 25.0265 28.2516 25.2424 28.0319 25.4545C27.8122 25.6667 27.53 25.8428 27.1853 25.983C26.8406 26.1231 26.4278 26.1932 25.9467 26.1932ZM26.316 24.8295C26.7857 24.8295 27.1872 24.7367 27.5206 24.5511C27.8577 24.3655 28.1134 24.1231 28.2876 23.8239C28.4656 23.5208 28.5546 23.197 28.5546 22.8523V21.7273C28.494 21.7879 28.3766 21.8447 28.2024 21.8977C28.0319 21.947 27.8368 21.9905 27.6171 22.0284C27.3975 22.0625 27.1834 22.0947 26.9751 22.125C26.7668 22.1515 26.5925 22.1742 26.4524 22.1932C26.1228 22.2348 25.8217 22.3049 25.549 22.4034C25.28 22.5019 25.0641 22.6439 24.9012 22.8295C24.7421 23.0114 24.6626 23.2538 24.6626 23.5568C24.6626 23.9773 24.8179 24.2955 25.1285 24.5114C25.4391 24.7235 25.835 24.8295 26.316 24.8295ZM39.6377 17.2727L36.4729 26H34.6548L31.4843 17.2727H33.3082L35.5184 23.9886H35.6093L37.8138 17.2727H39.6377ZM44.6668 26.1761C43.8069 26.1761 43.0664 25.9924 42.4452 25.625C41.8278 25.2538 41.3505 24.733 41.0134 24.0625C40.68 23.3883 40.5134 22.5985 40.5134 21.6932C40.5134 20.7992 40.68 20.0114 41.0134 19.3295C41.3505 18.6477 41.8202 18.1155 42.4225 17.733C43.0285 17.3504 43.7369 17.1591 44.5475 17.1591C45.0399 17.1591 45.5172 17.2405 45.9793 17.4034C46.4414 17.5663 46.8562 17.822 47.2236 18.1705C47.591 18.5189 47.8808 18.9716 48.0929 19.5284C48.305 20.0814 48.4111 20.7538 48.4111 21.5455V22.1477H41.4736V20.875H46.7463C46.7463 20.428 46.6554 20.0322 46.4736 19.6875C46.2918 19.339 46.0361 19.0644 45.7066 18.8636C45.3808 18.6629 44.9982 18.5625 44.5588 18.5625C44.0816 18.5625 43.6649 18.6799 43.3088 18.9148C42.9566 19.1458 42.6838 19.4489 42.4906 19.8239C42.3013 20.1951 42.2066 20.5985 42.2066 21.0341V22.0284C42.2066 22.6117 42.3088 23.108 42.5134 23.517C42.7217 23.9261 43.0115 24.2386 43.3827 24.4545C43.7539 24.6667 44.1876 24.7727 44.6838 24.7727C45.0058 24.7727 45.2994 24.7273 45.5645 24.6364C45.8297 24.5417 46.0588 24.4015 46.252 24.2159C46.4452 24.0303 46.5929 23.8011 46.6952 23.5284L48.3031 23.8182C48.1744 24.2917 47.9433 24.7064 47.61 25.0625C47.2804 25.4148 46.8656 25.6894 46.3656 25.8864C45.8694 26.0795 45.3031 26.1761 44.6668 26.1761ZM54.6028 14.3636H56.7335L60.438 23.4091H60.5744L64.2789 14.3636H66.4096V26H64.7391V17.5795H64.6312L61.1994 25.983H59.813L56.3812 17.5739H56.2732V26H54.6028V14.3636ZM72.5552 26.1761C71.6953 26.1761 70.9548 25.9924 70.3336 25.625C69.7161 25.2538 69.2389 24.733 68.9017 24.0625C68.5684 23.3883 68.4017 22.5985 68.4017 21.6932C68.4017 20.7992 68.5684 20.0114 68.9017 19.3295C69.2389 18.6477 69.7086 18.1155 70.3108 17.733C70.9169 17.3504 71.6252 17.1591 72.4358 17.1591C72.9283 17.1591 73.4055 17.2405 73.8677 17.4034C74.3298 17.5663 74.7446 17.822 75.112 18.1705C75.4794 18.5189 75.7692 18.9716 75.9813 19.5284C76.1934 20.0814 76.2995 20.7538 76.2995 21.5455V22.1477H69.362V20.875H74.6347C74.6347 20.428 74.5438 20.0322 74.362 19.6875C74.1802 19.339 73.9245 19.0644 73.5949 18.8636C73.2692 18.6629 72.8866 18.5625 72.4472 18.5625C71.9699 18.5625 71.5533 18.6799 71.1972 18.9148C70.8449 19.1458 70.5722 19.4489 70.379 19.8239C70.1896 20.1951 70.0949 20.5985 70.0949 21.0341V22.0284C70.0949 22.6117 70.1972 23.108 70.4017 23.517C70.6101 23.9261 70.8999 24.2386 71.2711 24.4545C71.6423 24.6667 72.076 24.7727 72.5722 24.7727C72.8942 24.7727 73.1877 24.7273 73.4529 24.6364C73.718 24.5417 73.9472 24.4015 74.1404 24.2159C74.3336 24.0303 74.4813 23.8011 74.5836 23.5284L76.1915 23.8182C76.0627 24.2917 75.8317 24.7064 75.4983 25.0625C75.1688 25.4148 74.754 25.6894 74.254 25.8864C73.7578 26.0795 73.1915 26.1761 72.5552 26.1761ZM80.6922 26.1932C80.1392 26.1932 79.6392 26.0909 79.1922 25.8864C78.7452 25.678 78.3911 25.3769 78.1297 24.983C77.8721 24.589 77.7433 24.1061 77.7433 23.5341C77.7433 23.0417 77.838 22.6364 78.0274 22.3182C78.2168 22 78.4725 21.7481 78.7945 21.5625C79.1164 21.3769 79.4763 21.2367 79.874 21.142C80.2717 21.0473 80.677 20.9754 81.0899 20.9261C81.6126 20.8655 82.0369 20.8163 82.3626 20.7784C82.6884 20.7367 82.9251 20.6705 83.0729 20.5795C83.2206 20.4886 83.2945 20.3409 83.2945 20.1364V20.0966C83.2945 19.6004 83.1543 19.2159 82.874 18.9432C82.5975 18.6705 82.1846 18.5341 81.6354 18.5341C81.0634 18.5341 80.6126 18.661 80.2831 18.9148C79.9573 19.1648 79.732 19.4432 79.607 19.75L78.0104 19.3864C78.1998 18.8561 78.4763 18.428 78.8399 18.1023C79.2073 17.7727 79.6297 17.5341 80.107 17.3864C80.5842 17.2348 81.0861 17.1591 81.6126 17.1591C81.9611 17.1591 82.3305 17.2008 82.7206 17.2841C83.1145 17.3636 83.482 17.5114 83.8229 17.7273C84.1676 17.9432 84.4498 18.2519 84.6695 18.6534C84.8892 19.0511 84.999 19.5682 84.999 20.2045V26H83.3399V24.8068H83.2717C83.1619 25.0265 82.9971 25.2424 82.7774 25.4545C82.5577 25.6667 82.2755 25.8428 81.9308 25.983C81.5861 26.1231 81.1733 26.1932 80.6922 26.1932ZM81.0615 24.8295C81.5312 24.8295 81.9327 24.7367 82.2661 24.5511C82.6032 24.3655 82.8589 24.1231 83.0331 23.8239C83.2111 23.5208 83.3001 23.197 83.3001 22.8523V21.7273C83.2395 21.7879 83.1221 21.8447 82.9479 21.8977C82.7774 21.947 82.5823 21.9905 82.3626 22.0284C82.143 22.0625 81.9289 22.0947 81.7206 22.125C81.5123 22.1515 81.338 22.1742 81.1979 22.1932C80.8683 22.2348 80.5672 22.3049 80.2945 22.4034C80.0255 22.5019 79.8096 22.6439 79.6467 22.8295C79.4876 23.0114 79.4081 23.2538 79.4081 23.5568C79.4081 23.9773 79.5634 24.2955 79.874 24.5114C80.1846 24.7235 80.5805 24.8295 81.0615 24.8295ZM88.9287 14.3636V26H87.2298V14.3636H88.9287Z" fill="#F8F9FA"/>
<g clip-path="url(#clip1_113_1762)">
<path d="M109.083 19.0833V13.5833H110.917V19.0833H116.417V20.9166H110.917V26.4166H109.083V20.9166H103.583V19.0833H109.083Z" fill="#F8F9FA"/>
</g>
</g>
<defs>
<clipPath id="clip0_113_1762">
<path d="M0 6C0 2.68629 2.68629 0 6 0H127C130.314 0 133 2.68629 133 6V34C133 37.3137 130.314 40 127 40H6C2.68629 40 0 37.3137 0 34V6Z" fill="white"/>
</clipPath>
<clipPath id="clip1_113_1762">
<rect width="22" height="22" fill="white" transform="translate(99 9)"/>
</clipPath>
</defs>
</svg>
