<svg width="146" height="40" viewBox="0 0 146 40" fill="none" xmlns="http://www.w3.org/2000/svg">
<g clip-path="url(#clip0_27_2097)">
<rect x="0.5" y="0.5" width="145" height="39" rx="5.5" fill="white"/>
<path d="M14.2614 26H12.3977L16.5852 14.3636H18.6136L22.8011 26H20.9375L17.6477 16.4773H17.5568L14.2614 26ZM14.5739 21.4432H20.6193V22.9205H14.5739V21.4432ZM27.4396 26.1705C26.735 26.1705 26.1063 25.9905 25.5532 25.6307C25.004 25.267 24.5722 24.75 24.2578 24.0795C23.9472 23.4053 23.7919 22.5966 23.7919 21.6534C23.7919 20.7102 23.9491 19.9034 24.2635 19.233C24.5816 18.5625 25.0172 18.0492 25.5703 17.6932C26.1233 17.3371 26.7502 17.1591 27.451 17.1591C27.9926 17.1591 28.4282 17.25 28.7578 17.4318C29.0911 17.6098 29.3487 17.8182 29.5305 18.0568C29.7161 18.2955 29.86 18.5057 29.9623 18.6875H30.0646V14.3636H31.7635V26H30.1044V24.642H29.9623C29.86 24.8277 29.7123 25.0398 29.5191 25.2784C29.3297 25.517 29.0684 25.7254 28.735 25.9034C28.4017 26.0814 27.9699 26.1705 27.4396 26.1705ZM27.8146 24.7216C28.3032 24.7216 28.7161 24.5928 29.0532 24.3352C29.3941 24.0739 29.6517 23.7121 29.826 23.25C30.004 22.7879 30.093 22.25 30.093 21.6364C30.093 21.0303 30.0059 20.5 29.8316 20.0455C29.6574 19.5909 29.4017 19.2367 29.0646 18.983C28.7275 18.7292 28.3108 18.6023 27.8146 18.6023C27.3032 18.6023 26.8771 18.7348 26.5362 19C26.1953 19.2652 25.9377 19.6269 25.7635 20.0852C25.593 20.5436 25.5078 21.0606 25.5078 21.6364C25.5078 22.2197 25.5949 22.7443 25.7691 23.2102C25.9434 23.6761 26.201 24.0455 26.5419 24.3182C26.8866 24.5871 27.3108 24.7216 27.8146 24.7216ZM37.4232 26.1705C36.7187 26.1705 36.0899 25.9905 35.5369 25.6307C34.9876 25.267 34.5558 24.75 34.2414 24.0795C33.9308 23.4053 33.7755 22.5966 33.7755 21.6534C33.7755 20.7102 33.9327 19.9034 34.2471 19.233C34.5653 18.5625 35.0009 18.0492 35.5539 17.6932C36.1069 17.3371 36.7338 17.1591 37.4346 17.1591C37.9762 17.1591 38.4119 17.25 38.7414 17.4318C39.0747 17.6098 39.3323 17.8182 39.5141 18.0568C39.6997 18.2955 39.8437 18.5057 39.9459 18.6875H40.0482V14.3636H41.7471V26H40.088V24.642H39.9459C39.8437 24.8277 39.6959 25.0398 39.5028 25.2784C39.3134 25.517 39.052 25.7254 38.7187 25.9034C38.3853 26.0814 37.9535 26.1705 37.4232 26.1705ZM37.7982 24.7216C38.2869 24.7216 38.6997 24.5928 39.0369 24.3352C39.3778 24.0739 39.6353 23.7121 39.8096 23.25C39.9876 22.7879 40.0766 22.25 40.0766 21.6364C40.0766 21.0303 39.9895 20.5 39.8153 20.0455C39.641 19.5909 39.3853 19.2367 39.0482 18.983C38.7111 18.7292 38.2944 18.6023 37.7982 18.6023C37.2869 18.6023 36.8607 18.7348 36.5198 19C36.1789 19.2652 35.9213 19.6269 35.7471 20.0852C35.5766 20.5436 35.4914 21.0606 35.4914 21.6364C35.4914 22.2197 35.5785 22.7443 35.7528 23.2102C35.927 23.6761 36.1846 24.0455 36.5255 24.3182C36.8702 24.5871 37.2944 24.7216 37.7982 24.7216ZM52.416 17.2727V18.6364H47.649V17.2727H52.416ZM48.9274 15.1818H50.6263V23.4375C50.6263 23.767 50.6755 24.0152 50.774 24.1818C50.8725 24.3447 50.9994 24.4564 51.1547 24.517C51.3138 24.5739 51.4861 24.6023 51.6717 24.6023C51.8081 24.6023 51.9274 24.5928 52.0297 24.5739C52.1319 24.5549 52.2115 24.5398 52.2683 24.5284L52.5751 25.9318C52.4766 25.9697 52.3365 26.0076 52.1547 26.0455C51.9729 26.0871 51.7456 26.1098 51.4729 26.1136C51.0259 26.1212 50.6092 26.0417 50.2229 25.875C49.8365 25.7083 49.524 25.4508 49.2854 25.1023C49.0467 24.7538 48.9274 24.3163 48.9274 23.7898V15.1818ZM57.8457 26.1761C57.0275 26.1761 56.3135 25.9886 55.7036 25.6136C55.0938 25.2386 54.6203 24.714 54.2832 24.0398C53.9461 23.3655 53.7775 22.5777 53.7775 21.6761C53.7775 20.7708 53.9461 19.9792 54.2832 19.3011C54.6203 18.6231 55.0938 18.0966 55.7036 17.7216C56.3135 17.3466 57.0275 17.1591 57.8457 17.1591C58.6639 17.1591 59.3779 17.3466 59.9877 17.7216C60.5976 18.0966 61.0711 18.6231 61.4082 19.3011C61.7453 19.9792 61.9139 20.7708 61.9139 21.6761C61.9139 22.5777 61.7453 23.3655 61.4082 24.0398C61.0711 24.714 60.5976 25.2386 59.9877 25.6136C59.3779 25.9886 58.6639 26.1761 57.8457 26.1761ZM57.8514 24.75C58.3817 24.75 58.8211 24.6098 59.1695 24.3295C59.518 24.0492 59.7756 23.6761 59.9423 23.2102C60.1127 22.7443 60.198 22.2311 60.198 21.6705C60.198 21.1136 60.1127 20.6023 59.9423 20.1364C59.7756 19.6667 59.518 19.2898 59.1695 19.0057C58.8211 18.7216 58.3817 18.5795 57.8514 18.5795C57.3173 18.5795 56.8741 18.7216 56.5218 19.0057C56.1733 19.2898 55.9139 19.6667 55.7434 20.1364C55.5767 20.6023 55.4934 21.1136 55.4934 21.6705C55.4934 22.2311 55.5767 22.7443 55.7434 23.2102C55.9139 23.6761 56.1733 24.0492 56.5218 24.3295C56.8741 24.6098 57.3173 24.75 57.8514 24.75ZM68.1169 14.3636H70.2476L73.9521 23.4091H74.0885L77.793 14.3636H79.9237V26H78.2533V17.5795H78.1453L74.7135 25.983H73.3271L69.8953 17.5739H69.7874V26H68.1169V14.3636ZM86.0693 26.1761C85.2094 26.1761 84.4689 25.9924 83.8477 25.625C83.2303 25.2538 82.753 24.733 82.4159 24.0625C82.0825 23.3883 81.9159 22.5985 81.9159 21.6932C81.9159 20.7992 82.0825 20.0114 82.4159 19.3295C82.753 18.6477 83.2227 18.1155 83.825 17.733C84.431 17.3504 85.1394 17.1591 85.95 17.1591C86.4424 17.1591 86.9197 17.2405 87.3818 17.4034C87.8439 17.5663 88.2587 17.822 88.6261 18.1705C88.9935 18.5189 89.2833 18.9716 89.4954 19.5284C89.7075 20.0814 89.8136 20.7538 89.8136 21.5455V22.1477H82.8761V20.875H88.1488C88.1488 20.428 88.0579 20.0322 87.8761 19.6875C87.6943 19.339 87.4386 19.0644 87.1091 18.8636C86.7833 18.6629 86.4007 18.5625 85.9613 18.5625C85.4841 18.5625 85.0674 18.6799 84.7113 18.9148C84.3591 19.1458 84.0863 19.4489 83.8932 19.8239C83.7038 20.1951 83.6091 20.5985 83.6091 21.0341V22.0284C83.6091 22.6117 83.7113 23.108 83.9159 23.517C84.1242 23.9261 84.414 24.2386 84.7852 24.4545C85.1564 24.6667 85.5901 24.7727 86.0863 24.7727C86.4083 24.7727 86.7019 24.7273 86.967 24.6364C87.2322 24.5417 87.4613 24.4015 87.6545 24.2159C87.8477 24.0303 87.9954 23.8011 88.0977 23.5284L89.7057 23.8182C89.5769 24.2917 89.3458 24.7064 89.0125 25.0625C88.6829 25.4148 88.2682 25.6894 87.7682 25.8864C87.2719 26.0795 86.7057 26.1761 86.0693 26.1761ZM94.2063 26.1932C93.6533 26.1932 93.1533 26.0909 92.7063 25.8864C92.2593 25.678 91.9052 25.3769 91.6438 24.983C91.3862 24.589 91.2575 24.1061 91.2575 23.5341C91.2575 23.0417 91.3521 22.6364 91.5415 22.3182C91.7309 22 91.9866 21.7481 92.3086 21.5625C92.6306 21.3769 92.9904 21.2367 93.3881 21.142C93.7859 21.0473 94.1912 20.9754 94.604 20.9261C95.1268 20.8655 95.551 20.8163 95.8768 20.7784C96.2025 20.7367 96.4393 20.6705 96.587 20.5795C96.7347 20.4886 96.8086 20.3409 96.8086 20.1364V20.0966C96.8086 19.6004 96.6684 19.2159 96.3881 18.9432C96.1116 18.6705 95.6987 18.5341 95.1495 18.5341C94.5775 18.5341 94.1268 18.661 93.7972 18.9148C93.4715 19.1648 93.2461 19.4432 93.1211 19.75L91.5245 19.3864C91.7139 18.8561 91.9904 18.428 92.354 18.1023C92.7215 17.7727 93.1438 17.5341 93.6211 17.3864C94.0984 17.2348 94.6003 17.1591 95.1268 17.1591C95.4753 17.1591 95.8446 17.2008 96.2347 17.2841C96.6287 17.3636 96.9961 17.5114 97.337 17.7273C97.6817 17.9432 97.9639 18.2519 98.1836 18.6534C98.4033 19.0511 98.5131 19.5682 98.5131 20.2045V26H96.854V24.8068H96.7859C96.676 25.0265 96.5112 25.2424 96.2915 25.4545C96.0718 25.6667 95.7896 25.8428 95.445 25.983C95.1003 26.1231 94.6874 26.1932 94.2063 26.1932ZM94.5756 24.8295C95.0453 24.8295 95.4468 24.7367 95.7802 24.5511C96.1173 24.3655 96.373 24.1231 96.5472 23.8239C96.7253 23.5208 96.8143 23.197 96.8143 22.8523V21.7273C96.7537 21.7879 96.6362 21.8447 96.462 21.8977C96.2915 21.947 96.0965 21.9905 95.8768 22.0284C95.6571 22.0625 95.4431 22.0947 95.2347 22.125C95.0264 22.1515 94.8521 22.1742 94.712 22.1932C94.3825 22.2348 94.0813 22.3049 93.8086 22.4034C93.5396 22.5019 93.3237 22.6439 93.1609 22.8295C93.0018 23.0114 92.9222 23.2538 92.9222 23.5568C92.9222 23.9773 93.0775 24.2955 93.3881 24.5114C93.6987 24.7235 94.0946 24.8295 94.5756 24.8295ZM102.443 14.3636V26H100.744V14.3636H102.443Z" fill="#101113"/>
<g clip-path="url(#clip1_27_2097)">
<path d="M122.083 19.0834V13.5834H123.917V19.0834H129.417V20.9167H123.917V26.4167H122.083V20.9167H116.583V19.0834H122.083Z" fill="#101113"/>
</g>
<rect x="0.5" y="0.5" width="145" height="39" rx="5.5" stroke="#DEE2E6"/>
</g>
<defs>
<clipPath id="clip0_27_2097">
<path d="M0 6C0 2.68629 2.68629 0 6 0H140C143.314 0 146 2.68629 146 6V34C146 37.3137 143.314 40 140 40H6C2.68629 40 0 37.3137 0 34V6Z" fill="white"/>
</clipPath>
<clipPath id="clip1_27_2097">
<rect width="22" height="22" fill="white" transform="translate(112 9)"/>
</clipPath>
</defs>
</svg>
