<svg width="194" height="40" viewBox="0 0 194 40" fill="none" xmlns="http://www.w3.org/2000/svg">
<g clip-path="url(#clip0_5_7770)">
<rect x="0.5" y="0.5" width="193" height="39" rx="5.5" fill="white"/>
<path d="M14.2614 26H12.3977L16.5852 14.3636H18.6136L22.8011 26H20.9375L17.6477 16.4773H17.5568L14.2614 26ZM14.5739 21.4432H20.6193V22.9205H14.5739V21.4432ZM27.4396 26.1705C26.735 26.1705 26.1063 25.9905 25.5532 25.6307C25.004 25.267 24.5722 24.75 24.2578 24.0795C23.9472 23.4053 23.7919 22.5966 23.7919 21.6534C23.7919 20.7102 23.9491 19.9034 24.2635 19.233C24.5816 18.5625 25.0172 18.0492 25.5703 17.6932C26.1233 17.3371 26.7502 17.1591 27.451 17.1591C27.9926 17.1591 28.4282 17.25 28.7578 17.4318C29.0911 17.6098 29.3487 17.8182 29.5305 18.0568C29.7161 18.2955 29.86 18.5057 29.9623 18.6875H30.0646V14.3636H31.7635V26H30.1044V24.642H29.9623C29.86 24.8277 29.7123 25.0398 29.5191 25.2784C29.3297 25.517 29.0684 25.7254 28.735 25.9034C28.4017 26.0814 27.9699 26.1705 27.4396 26.1705ZM27.8146 24.7216C28.3032 24.7216 28.7161 24.5928 29.0532 24.3352C29.3941 24.0739 29.6517 23.7121 29.826 23.25C30.004 22.7879 30.093 22.25 30.093 21.6364C30.093 21.0303 30.0059 20.5 29.8316 20.0455C29.6574 19.5909 29.4017 19.2367 29.0646 18.983C28.7275 18.7292 28.3108 18.6023 27.8146 18.6023C27.3032 18.6023 26.8771 18.7348 26.5362 19C26.1953 19.2652 25.9377 19.6269 25.7635 20.0852C25.593 20.5436 25.5078 21.0606 25.5078 21.6364C25.5078 22.2197 25.5949 22.7443 25.7691 23.2102C25.9434 23.6761 26.201 24.0455 26.5419 24.3182C26.8866 24.5871 27.3108 24.7216 27.8146 24.7216ZM37.4232 26.1705C36.7187 26.1705 36.0899 25.9905 35.5369 25.6307C34.9876 25.267 34.5558 24.75 34.2414 24.0795C33.9308 23.4053 33.7755 22.5966 33.7755 21.6534C33.7755 20.7102 33.9327 19.9034 34.2471 19.233C34.5653 18.5625 35.0009 18.0492 35.5539 17.6932C36.1069 17.3371 36.7338 17.1591 37.4346 17.1591C37.9762 17.1591 38.4119 17.25 38.7414 17.4318C39.0747 17.6098 39.3323 17.8182 39.5141 18.0568C39.6997 18.2955 39.8437 18.5057 39.9459 18.6875H40.0482V14.3636H41.7471V26H40.088V24.642H39.9459C39.8437 24.8277 39.6959 25.0398 39.5028 25.2784C39.3134 25.517 39.052 25.7254 38.7187 25.9034C38.3853 26.0814 37.9535 26.1705 37.4232 26.1705ZM37.7982 24.7216C38.2869 24.7216 38.6997 24.5928 39.0369 24.3352C39.3778 24.0739 39.6353 23.7121 39.8096 23.25C39.9876 22.7879 40.0766 22.25 40.0766 21.6364C40.0766 21.0303 39.9895 20.5 39.8153 20.0455C39.641 19.5909 39.3853 19.2367 39.0482 18.983C38.7111 18.7292 38.2944 18.6023 37.7982 18.6023C37.2869 18.6023 36.8607 18.7348 36.5198 19C36.1789 19.2652 35.9213 19.6269 35.7471 20.0852C35.5766 20.5436 35.4914 21.0606 35.4914 21.6364C35.4914 22.2197 35.5785 22.7443 35.7528 23.2102C35.927 23.6761 36.1846 24.0455 36.5255 24.3182C36.8702 24.5871 37.2944 24.7216 37.7982 24.7216ZM50.041 20.8182V26H48.3422V17.2727H49.9729V18.6932H50.0808C50.2816 18.2311 50.596 17.8598 51.024 17.5795C51.4558 17.2992 51.9994 17.1591 52.6547 17.1591C53.2494 17.1591 53.7702 17.2841 54.2172 17.5341C54.6641 17.7803 55.0107 18.1477 55.2569 18.6364C55.5032 19.125 55.6263 19.7292 55.6263 20.4489V26H53.9274V20.6534C53.9274 20.0208 53.7626 19.5265 53.4331 19.1705C53.1035 18.8106 52.6509 18.6307 52.0751 18.6307C51.6812 18.6307 51.3308 18.7159 51.024 18.8864C50.721 19.0568 50.4804 19.3068 50.3024 19.6364C50.1282 19.9621 50.041 20.3561 50.041 20.8182ZM61.634 26.1761C60.7742 26.1761 60.0337 25.9924 59.4124 25.625C58.795 25.2538 58.3177 24.733 57.9806 24.0625C57.6473 23.3883 57.4806 22.5985 57.4806 21.6932C57.4806 20.7992 57.6473 20.0114 57.9806 19.3295C58.3177 18.6477 58.7874 18.1155 59.3897 17.733C59.9958 17.3504 60.7041 17.1591 61.5147 17.1591C62.0071 17.1591 62.4844 17.2405 62.9465 17.4034C63.4087 17.5663 63.8234 17.822 64.1909 18.1705C64.5583 18.5189 64.848 18.9716 65.0602 19.5284C65.2723 20.0814 65.3784 20.7538 65.3784 21.5455V22.1477H58.4409V20.875H63.7136C63.7136 20.428 63.6227 20.0322 63.4409 19.6875C63.259 19.339 63.0034 19.0644 62.6738 18.8636C62.348 18.6629 61.9655 18.5625 61.5261 18.5625C61.0488 18.5625 60.6321 18.6799 60.2761 18.9148C59.9238 19.1458 59.6511 19.4489 59.4579 19.8239C59.2685 20.1951 59.1738 20.5985 59.1738 21.0341V22.0284C59.1738 22.6117 59.2761 23.108 59.4806 23.517C59.689 23.9261 59.9787 24.2386 60.3499 24.4545C60.7212 24.6667 61.1549 24.7727 61.6511 24.7727C61.973 24.7727 62.2666 24.7273 62.5318 24.6364C62.7969 24.5417 63.0261 24.4015 63.2193 24.2159C63.4124 24.0303 63.5602 23.8011 63.6624 23.5284L65.2704 23.8182C65.1416 24.2917 64.9105 24.7064 64.5772 25.0625C64.2477 25.4148 63.8329 25.6894 63.3329 25.8864C62.8367 26.0795 62.2704 26.1761 61.634 26.1761ZM69.1077 26L66.5395 17.2727H68.2952L70.0054 23.6818H70.0907L71.8066 17.2727H73.5623L75.2668 23.6534H75.352L77.0509 17.2727H78.8066L76.2441 26H74.5111L72.7384 19.6989H72.6077L70.835 26H69.1077ZM88.2653 26.1761C87.4206 26.1761 86.6933 25.9848 86.0835 25.6023C85.4774 25.2159 85.0115 24.6837 84.6858 24.0057C84.36 23.3277 84.1971 22.5511 84.1971 21.6761C84.1971 20.7898 84.3638 20.0076 84.6971 19.3295C85.0305 18.6477 85.5002 18.1155 86.1062 17.733C86.7123 17.3504 87.4263 17.1591 88.2483 17.1591C88.9111 17.1591 89.5021 17.2822 90.021 17.5284C90.5399 17.7708 90.9585 18.1117 91.2767 18.5511C91.5986 18.9905 91.7899 19.5038 91.8505 20.0909H90.1971C90.1062 19.6818 89.8979 19.3295 89.5721 19.0341C89.2502 18.7386 88.8183 18.5909 88.2767 18.5909C87.8032 18.5909 87.3884 18.7159 87.0324 18.9659C86.6801 19.2121 86.4055 19.5644 86.2085 20.0227C86.0115 20.4773 85.913 21.0152 85.913 21.6364C85.913 22.2727 86.0096 22.822 86.2028 23.2841C86.396 23.7462 86.6687 24.1042 87.021 24.358C87.3771 24.6117 87.7956 24.7386 88.2767 24.7386C88.5986 24.7386 88.8903 24.6799 89.1517 24.5625C89.4168 24.4413 89.6384 24.2689 89.8164 24.0455C89.9983 23.822 90.1252 23.553 90.1971 23.2386H91.8505C91.7899 23.803 91.6062 24.3068 91.2994 24.75C90.9926 25.1932 90.5816 25.5417 90.0664 25.7955C89.5551 26.0492 88.9547 26.1761 88.2653 26.1761ZM96.1751 26.1932C95.622 26.1932 95.122 26.0909 94.6751 25.8864C94.2281 25.678 93.8739 25.3769 93.6126 24.983C93.355 24.589 93.2262 24.1061 93.2262 23.5341C93.2262 23.0417 93.3209 22.6364 93.5103 22.3182C93.6997 22 93.9554 21.7481 94.2773 21.5625C94.5993 21.3769 94.9592 21.2367 95.3569 21.142C95.7546 21.0473 96.1599 20.9754 96.5728 20.9261C97.0955 20.8655 97.5198 20.8163 97.8455 20.7784C98.1713 20.7367 98.408 20.6705 98.5557 20.5795C98.7035 20.4886 98.7773 20.3409 98.7773 20.1364V20.0966C98.7773 19.6004 98.6372 19.2159 98.3569 18.9432C98.0804 18.6705 97.6675 18.5341 97.1182 18.5341C96.5463 18.5341 96.0955 18.661 95.766 18.9148C95.4402 19.1648 95.2148 19.4432 95.0898 19.75L93.4932 19.3864C93.6826 18.8561 93.9592 18.428 94.3228 18.1023C94.6902 17.7727 95.1126 17.5341 95.5898 17.3864C96.0671 17.2348 96.569 17.1591 97.0955 17.1591C97.444 17.1591 97.8133 17.2008 98.2035 17.2841C98.5974 17.3636 98.9648 17.5114 99.3057 17.7273C99.6504 17.9432 99.9326 18.2519 100.152 18.6534C100.372 19.0511 100.482 19.5682 100.482 20.2045V26H98.8228V24.8068H98.7546C98.6448 25.0265 98.48 25.2424 98.2603 25.4545C98.0406 25.6667 97.7584 25.8428 97.4137 25.983C97.069 26.1231 96.6561 26.1932 96.1751 26.1932ZM96.5444 24.8295C97.0141 24.8295 97.4156 24.7367 97.7489 24.5511C98.0861 24.3655 98.3417 24.1231 98.516 23.8239C98.694 23.5208 98.783 23.197 98.783 22.8523V21.7273C98.7224 21.7879 98.605 21.8447 98.4307 21.8977C98.2603 21.947 98.0652 21.9905 97.8455 22.0284C97.6258 22.0625 97.4118 22.0947 97.2035 22.125C96.9951 22.1515 96.8209 22.1742 96.6807 22.1932C96.3512 22.2348 96.0501 22.3049 95.7773 22.4034C95.5084 22.5019 95.2925 22.6439 95.1296 22.8295C94.9705 23.0114 94.891 23.2538 94.891 23.5568C94.891 23.9773 95.0463 24.2955 95.3569 24.5114C95.6675 24.7235 96.0633 24.8295 96.5444 24.8295ZM106.787 17.2727V18.6364H102.019V17.2727H106.787ZM103.298 15.1818H104.997V23.4375C104.997 23.767 105.046 24.0152 105.144 24.1818C105.243 24.3447 105.37 24.4564 105.525 24.517C105.684 24.5739 105.857 24.6023 106.042 24.6023C106.179 24.6023 106.298 24.5928 106.4 24.5739C106.502 24.5549 106.582 24.5398 106.639 24.5284L106.946 25.9318C106.847 25.9697 106.707 26.0076 106.525 26.0455C106.343 26.0871 106.116 26.1098 105.843 26.1136C105.396 26.1212 104.98 26.0417 104.593 25.875C104.207 25.7083 103.894 25.4508 103.656 25.1023C103.417 24.7538 103.298 24.3163 103.298 23.7898V15.1818ZM112.301 26.1761C111.442 26.1761 110.701 25.9924 110.08 25.625C109.462 25.2538 108.985 24.733 108.648 24.0625C108.315 23.3883 108.148 22.5985 108.148 21.6932C108.148 20.7992 108.315 20.0114 108.648 19.3295C108.985 18.6477 109.455 18.1155 110.057 17.733C110.663 17.3504 111.371 17.1591 112.182 17.1591C112.675 17.1591 113.152 17.2405 113.614 17.4034C114.076 17.5663 114.491 17.822 114.858 18.1705C115.226 18.5189 115.515 18.9716 115.728 19.5284C115.94 20.0814 116.046 20.7538 116.046 21.5455V22.1477H109.108V20.875H114.381C114.381 20.428 114.29 20.0322 114.108 19.6875C113.926 19.339 113.671 19.0644 113.341 18.8636C113.015 18.6629 112.633 18.5625 112.193 18.5625C111.716 18.5625 111.3 18.6799 110.943 18.9148C110.591 19.1458 110.318 19.4489 110.125 19.8239C109.936 20.1951 109.841 20.5985 109.841 21.0341V22.0284C109.841 22.6117 109.943 23.108 110.148 23.517C110.356 23.9261 110.646 24.2386 111.017 24.4545C111.389 24.6667 111.822 24.7727 112.318 24.7727C112.64 24.7727 112.934 24.7273 113.199 24.6364C113.464 24.5417 113.693 24.4015 113.887 24.2159C114.08 24.0303 114.228 23.8011 114.33 23.5284L115.938 23.8182C115.809 24.2917 115.578 24.7064 115.245 25.0625C114.915 25.4148 114.5 25.6894 114 25.8864C113.504 26.0795 112.938 26.1761 112.301 26.1761ZM121.558 29.4545C120.865 29.4545 120.268 29.3636 119.768 29.1818C119.272 29 118.866 28.7595 118.552 28.4602C118.238 28.161 118.003 27.8333 117.848 27.4773L119.308 26.875C119.41 27.0417 119.546 27.2178 119.717 27.4034C119.891 27.5928 120.126 27.7538 120.421 27.8864C120.721 28.0189 121.105 28.0852 121.575 28.0852C122.219 28.0852 122.751 27.928 123.171 27.6136C123.592 27.303 123.802 26.8068 123.802 26.125V24.4091H123.694C123.592 24.5947 123.444 24.8011 123.251 25.0284C123.062 25.2557 122.8 25.4527 122.467 25.6193C122.134 25.786 121.7 25.8693 121.166 25.8693C120.476 25.8693 119.855 25.7083 119.302 25.3864C118.753 25.0606 118.317 24.5814 117.995 23.9489C117.677 23.3125 117.518 22.5303 117.518 21.6023C117.518 20.6742 117.675 19.8788 117.99 19.2159C118.308 18.553 118.743 18.0455 119.296 17.6932C119.849 17.3371 120.476 17.1591 121.177 17.1591C121.719 17.1591 122.156 17.25 122.49 17.4318C122.823 17.6098 123.082 17.8182 123.268 18.0568C123.457 18.2955 123.603 18.5057 123.705 18.6875H123.83V17.2727H125.495V26.1932C125.495 26.9432 125.321 27.5587 124.973 28.0398C124.624 28.5208 124.152 28.8769 123.558 29.108C122.967 29.339 122.3 29.4545 121.558 29.4545ZM121.541 24.4602C122.029 24.4602 122.442 24.3466 122.779 24.1193C123.12 23.8883 123.378 23.5587 123.552 23.1307C123.73 22.6989 123.819 22.1818 123.819 21.5795C123.819 20.9924 123.732 20.4754 123.558 20.0284C123.384 19.5814 123.128 19.233 122.791 18.983C122.454 18.7292 122.037 18.6023 121.541 18.6023C121.029 18.6023 120.603 18.7348 120.262 19C119.921 19.2614 119.664 19.6174 119.49 20.0682C119.319 20.5189 119.234 21.0227 119.234 21.5795C119.234 22.1515 119.321 22.6534 119.495 23.0852C119.67 23.517 119.927 23.8542 120.268 24.0966C120.613 24.339 121.037 24.4602 121.541 24.4602ZM131.418 26.1761C130.6 26.1761 129.886 25.9886 129.276 25.6136C128.666 25.2386 128.192 24.714 127.855 24.0398C127.518 23.3655 127.35 22.5777 127.35 21.6761C127.35 20.7708 127.518 19.9792 127.855 19.3011C128.192 18.6231 128.666 18.0966 129.276 17.7216C129.886 17.3466 130.6 17.1591 131.418 17.1591C132.236 17.1591 132.95 17.3466 133.56 17.7216C134.17 18.0966 134.643 18.6231 134.98 19.3011C135.317 19.9792 135.486 20.7708 135.486 21.6761C135.486 22.5777 135.317 23.3655 134.98 24.0398C134.643 24.714 134.17 25.2386 133.56 25.6136C132.95 25.9886 132.236 26.1761 131.418 26.1761ZM131.423 24.75C131.954 24.75 132.393 24.6098 132.742 24.3295C133.09 24.0492 133.348 23.6761 133.514 23.2102C133.685 22.7443 133.77 22.2311 133.77 21.6705C133.77 21.1136 133.685 20.6023 133.514 20.1364C133.348 19.6667 133.09 19.2898 132.742 19.0057C132.393 18.7216 131.954 18.5795 131.423 18.5795C130.889 18.5795 130.446 18.7216 130.094 19.0057C129.745 19.2898 129.486 19.6667 129.316 20.1364C129.149 20.6023 129.066 21.1136 129.066 21.6705C129.066 22.2311 129.149 22.7443 129.316 23.2102C129.486 23.6761 129.745 24.0492 130.094 24.3295C130.446 24.6098 130.889 24.75 131.423 24.75ZM137.35 26V17.2727H138.992V18.6591H139.083C139.242 18.1894 139.523 17.8201 139.924 17.5511C140.329 17.2784 140.788 17.142 141.299 17.142C141.405 17.142 141.53 17.1458 141.674 17.1534C141.822 17.161 141.937 17.1705 142.021 17.1818V18.8068C141.953 18.7879 141.831 18.767 141.657 18.7443C141.483 18.7178 141.309 18.7045 141.134 18.7045C140.733 18.7045 140.375 18.7898 140.061 18.9602C139.75 19.1269 139.504 19.3598 139.322 19.6591C139.14 19.9545 139.049 20.2917 139.049 20.6705V26H137.35ZM144.798 29.2727C144.545 29.2727 144.314 29.2519 144.105 29.2102C143.897 29.1723 143.742 29.1307 143.639 29.0852L144.048 27.6932C144.359 27.7765 144.636 27.8125 144.878 27.8011C145.12 27.7898 145.334 27.6989 145.52 27.5284C145.709 27.358 145.876 27.0795 146.02 26.6932L146.23 26.1136L143.037 17.2727H144.855L147.065 24.0455H147.156L149.367 17.2727H151.19L147.594 27.1648C147.427 27.6193 147.215 28.0038 146.958 28.3182C146.7 28.6364 146.393 28.875 146.037 29.0341C145.681 29.1932 145.268 29.2727 144.798 29.2727Z" fill="#101113"/>
<g clip-path="url(#clip1_5_7770)">
<path d="M170.083 19.0834V13.5834H171.917V19.0834H177.417V20.9167H171.917V26.4167H170.083V20.9167H164.583V19.0834H170.083Z" fill="#101113"/>
</g>
<rect x="0.5" y="0.5" width="193" height="39" rx="5.5" stroke="#DEE2E6"/>
</g>
<defs>
<clipPath id="clip0_5_7770">
<path d="M0 6C0 2.68629 2.68629 0 6 0H188C191.314 0 194 2.68629 194 6V34C194 37.3137 191.314 40 188 40H6C2.68629 40 0 37.3137 0 34V6Z" fill="white"/>
</clipPath>
<clipPath id="clip1_5_7770">
<rect width="22" height="22" fill="white" transform="translate(160 9)"/>
</clipPath>
</defs>
</svg>
