<svg width="13" height="13" viewBox="0 0 13 13" fill="none" xmlns="http://www.w3.org/2000/svg">
<path d="M6.36008 1.10614C8.83315 1.10614 10.8403 3.11327 10.8403 5.58634C10.8403 8.05941 8.83315 10.0665 6.36008 10.0665C3.88701 10.0665 1.87988 8.05941 1.87988 5.58634C1.87988 3.11327 3.88701 1.10614 6.36008 1.10614ZM6.36008 9.07094C8.28507 9.07094 9.84468 7.51133 9.84468 5.58634C9.84468 3.66085 8.28507 2.10174 6.36008 2.10174C4.43459 2.10174 2.87548 3.66085 2.87548 5.58634C2.87548 7.51133 4.43459 9.07094 6.36008 9.07094ZM10.5839 9.10628L11.9922 10.5141L11.2878 11.2184L9.88002 9.81017L10.5839 9.10628V9.10628Z" fill="#A6A7AB"/>
</svg>
